# xmcd CD database file
#
# Track frame offsets:
#	150
#	18745
#	35944
#	52798
#	67473
#	76956
#	99839
#	114257
#	128601
#	139827
#	153850
#	170067
#	186806
#	199370
#	214969
#
# Disc length: 3199 seconds
#
# Revision: 0
# Processed by: cddbd v1.5.1PL0 Copyright (c) Steve Scherf et al.
# Submitted via: CDex 1.50
#
DISCID=d80c7d0f
DTITLE=Jolly Jumper and Big Moe - Rooster Soup
DYEAR=2004
DGENRE=Blues
TTITLE0=Rooster Soup
TTITLE1=She's maybe your wife
TTITLE2=Big mama's door
TTITLE3=Death don't have a mercy
TTITLE4=Hang it on the wall
TTITLE5=How can a poor man stand such times and live
TTITLE6=The Alexis blues
TTITLE7=Little childrens blues
TTITLE8=Busted
TTITLE9=Back to basics
TTITLE10=Billy the kid
TTITLE11=My pencil won't write no more
TTITLE12=James Alley blues
TTITLE13=Closer to the bone
TTITLE14=Rainy rainy day
EXTD=YEAR: 2004
EXTT0=
EXTT1=
EXTT2=
EXTT3=
EXTT4=
EXTT5=
EXTT6=
EXTT7=
EXTT8=
EXTT9=
EXTT10=
EXTT11=
EXTT12=
EXTT13=
EXTT14=
PLAYORDER=
